<?xml version="1.0" encoding="UTF-8" standalone="no"?>
<svg
   width="32"
   height="32"
   viewBox="0 0 32 32"
   fill="none"
   version="1.1"
   id="svg13"
   xmlns="http://www.w3.org/2000/svg"
   xmlns:svg="http://www.w3.org/2000/svg">
  <g
     filter="url(#filter0_ii_957_3559)"
     id="g4">
    <rect
       width="32"
       height="32"
       rx="6.5"
       fill="#0A1523"
       id="rect1"
       clip-path="none" />
    <rect
       width="32"
       height="32"
       rx="6.5"
       fill="url(#paint0_radial_957_3559)"
       fill-opacity="0.16"
       id="rect2"
       clip-path="none" />
    <rect
       x="0.25"
       y="0.25"
       width="31.5"
       height="31.5"
       rx="6.25"
       stroke="url(#paint1_linear_957_3559)"
       stroke-opacity="0.24"
       stroke-width="0.5"
       id="rect3"
       clip-path="none" />
    <path
       d="M26.8764 13.5547V15.7181H28.9998V16.2692H26.8764V18.4321H26.3354V16.2692H24.2114V15.7181H26.3354V13.5547H26.8764Z"
       fill="#FCFCFC"
       id="path3"
       clip-path="none" />
    <path
       d="M18.1129 13.2186V18.7659H17.5147V14.3098L15.5288 18.7659H14.9408L14.9204 18.7204L12.9549 14.3098V18.7659H12.3567V13.2186H13.1224L13.1428 13.2641L15.2351 17.9565L17.3472 13.2186H18.1129ZM11.5559 15.9216L11.5508 18.7665H10.9548L10.9424 18.1168C10.7426 18.2799 10.4647 18.4725 10.1302 18.6177C9.80935 18.7567 9.22642 18.8973 8.64689 18.8979C8.1415 18.8979 7.71364 18.7901 7.41086 18.5866C7.03055 18.3307 6.83756 17.9427 6.83756 17.4337C6.83756 16.9546 7.00168 16.5528 7.32597 16.2398C7.98587 15.6034 9.10078 15.544 9.55128 15.5463C9.60051 15.5452 10.6532 15.5365 10.9492 15.5337C10.9458 15.3434 10.9412 15.1993 10.9333 15.0621C10.8801 14.1323 10.3193 13.6993 9.1687 13.6993C7.95587 13.6993 7.65988 14.5346 7.61291 14.7018L7.58234 14.8108H6.97282L7.01527 14.6263C7.05092 14.4689 7.41596 13.09 9.1687 13.09C11.0295 13.09 11.48 14.1432 11.5304 15.0264C11.5428 15.2454 11.5547 15.8945 11.5553 15.9222L11.5559 15.9216ZM9.66673 16.1585C9.64239 16.158 9.60221 16.1568 9.54618 16.1568C9.16587 16.1568 8.22922 16.2081 7.73798 16.6826C7.53537 16.8786 7.4369 17.1241 7.4369 17.4337C7.4369 17.7432 7.5365 17.9398 7.74194 18.0782C8.28469 18.4431 9.43299 18.2592 9.8965 18.058C10.4568 17.8147 10.8411 17.3997 10.9475 17.2757C10.952 16.8584 10.9548 16.4779 10.9543 16.1436L9.6673 16.1591L9.66673 16.1585ZM26.8823 11.8789V9.38393H3.92859V22.6034H26.8823V20.1085H26.326V22.0368H4.48492V9.95059H26.3254V11.8789H26.8817H26.8823ZM22.9093 17.391C22.5301 17.9542 21.9506 18.2851 21.323 18.2851C20.2171 18.2851 19.3178 17.2567 19.3178 15.9925C19.3178 14.7283 20.2177 13.6999 21.323 13.6999C21.9501 13.6999 22.529 14.0308 22.9088 14.5929H23.6009C23.1408 13.6636 22.2789 13.0906 21.323 13.0906C19.8872 13.0906 18.7196 14.3923 18.7196 15.9925C18.7196 17.5928 19.8877 18.8945 21.323 18.8945C22.2794 18.8945 23.1414 18.3209 23.6015 17.391H22.9093Z"
       fill="url(#paint2_radial_957_3559)"
       id="path4"
       clip-path="none" />
  </g>
  <defs
     id="defs13">
    <filter
       id="filter0_ii_957_3559"
       x="-0.5"
       y="-0.5"
       width="33"
       height="33"
       filterUnits="userSpaceOnUse"
       color-interpolation-filters="sRGB">
      <feFlood
         flood-opacity="0"
         result="BackgroundImageFix"
         id="feFlood4" />
      <feBlend
         mode="normal"
         in="SourceGraphic"
         in2="BackgroundImageFix"
         result="shape"
         id="feBlend4" />
      <feColorMatrix
         in="SourceAlpha"
         type="matrix"
         values="0 0 0 0 0 0 0 0 0 0 0 0 0 0 0 0 0 0 127 0"
         result="hardAlpha"
         id="feColorMatrix4" />
      <feOffset
         dx="-0.5"
         dy="-0.5"
         id="feOffset4" />
      <feGaussianBlur
         stdDeviation="0.5"
         id="feGaussianBlur4" />
      <feComposite
         in2="hardAlpha"
         operator="arithmetic"
         k2="-1"
         k3="1"
         id="feComposite4" />
      <feColorMatrix
         type="matrix"
         values="0 0 0 0 1 0 0 0 0 1 0 0 0 0 1 0 0 0 0.25 0"
         id="feColorMatrix5" />
      <feBlend
         mode="normal"
         in2="shape"
         result="effect1_innerShadow_957_3559"
         id="feBlend5" />
      <feColorMatrix
         in="SourceAlpha"
         type="matrix"
         values="0 0 0 0 0 0 0 0 0 0 0 0 0 0 0 0 0 0 127 0"
         result="hardAlpha"
         id="feColorMatrix6" />
      <feOffset
         dx="0.5"
         dy="0.5"
         id="feOffset6" />
      <feGaussianBlur
         stdDeviation="0.5"
         id="feGaussianBlur6" />
      <feComposite
         in2="hardAlpha"
         operator="arithmetic"
         k2="-1"
         k3="1"
         id="feComposite6" />
      <feColorMatrix
         type="matrix"
         values="0 0 0 0 1 0 0 0 0 1 0 0 0 0 1 0 0 0 0.25 0"
         id="feColorMatrix7" />
      <feBlend
         mode="normal"
         in2="effect1_innerShadow_957_3559"
         result="effect2_innerShadow_957_3559"
         id="feBlend7" />
    </filter>
    <radialGradient
       id="paint0_radial_957_3559"
       cx="0"
       cy="0"
       r="1"
       gradientUnits="userSpaceOnUse"
       gradientTransform="translate(16.1119 32) rotate(-90) scale(16 18.8672)">
      <stop
         stop-color="white"
         id="stop7" />
      <stop
         offset="1"
         stop-color="white"
         stop-opacity="0"
         id="stop8" />
    </radialGradient>
    <linearGradient
       id="paint1_linear_957_3559"
       x1="16"
       y1="0"
       x2="16"
       y2="32"
       gradientUnits="userSpaceOnUse">
      <stop
         stop-color="#F5F5F5"
         id="stop9" />
      <stop
         offset="1"
         stop-color="#2C2C2C"
         id="stop10" />
    </linearGradient>
    <radialGradient
       id="paint2_radial_957_3559"
       cx="0"
       cy="0"
       r="1"
       gradientUnits="userSpaceOnUse"
       gradientTransform="translate(3.92859 22.7121) rotate(-29.5666) scale(26.766 50.7632)">
      <stop
         stop-color="#43757E"
         id="stop11" />
      <stop
         offset="0.512363"
         stop-color="#06EFE6"
         id="stop12" />
      <stop
         offset="0.890987"
         stop-color="#9FFFE8"
         id="stop13" />
    </radialGradient>
  </defs>
</svg>
