<svg xmlns="http://www.w3.org/2000/svg" viewBox="0 0 261 261"><defs><filter id="a" x="0" y="0" width="261" height="261" filterUnits="userSpaceOnUse"><feOffset dy="2"/><feGaussianBlur stdDeviation="7.5" result="b"/><feFlood flood-opacity=".1"/><feComposite operator="in" in2="b"/><feComposite in="SourceGraphic"/></filter></defs><g filter="url(#a)"><circle cx="108" cy="108" r="108" transform="translate(22.5 20.5)" fill="#fff"/></g><path d="m188.37 144.5-58.44 57.42-57.1-57.42V82.76h115.54Z" fill="#c12026"/><path d="m186.12 144.08-56.15 55.2-54.89-55.2V84.76h111.04Z" fill="#fff"/><path d="M183.2 143.36 130 195.64l-52-52.28V87.14h105.2Z" fill="#171548"/><path d="m148.94 173.56-19.07 18.78-18.69-18.78Z" fill="#fff"/><path d="M145.51 174.89 130 190.15l-15.17-15.26Z" fill="#c12026"/><path d="M118.7 120.13h-12.12l.04-15.32-6.06 11.48-6-11.51-.03 15.35H82.4l.03-28.64h12.12l6.03 11.51 6.06-11.51h12.05Zm28.43 0h-26.08l-.06-28.61 12.18-.03V114h13.96Zm32.33-7.58c0 5.05-2.67 7.55-7.97 7.55h-21.98l.03-28.65h21.98c4.29 0 6.86 1.5 7.65 4.5a8.3 8.3 0 0 1 .25 2.25q0 6.76-5.8 6.76a5.1 5.1 0 0 1 5.42 4.19 13.43 13.43 0 0 1 .41 3.4Zm-12.15-2.06a4.85 4.85 0 0 0-.13-1.2q-.62-2.3-3.8-2.3h-1.75v7.02h1.75c2.63-.03 3.96-1.2 3.93-3.52Zm.03-10.15a2.78 2.78 0 0 0-.1-.77c-.35-1.3-1.62-1.93-3.87-1.93h-1.74l-.04 5.4h1.75c2.67 0 4-.93 4-2.7ZM94.02 130.95h-3.43l-3.77-3.58a13.24 13.24 0 0 1-1.46-1.68 3.76 3.76 0 0 1 .35 1.33v3.93h-3.5v-8.12h4l3.2 2.98a15.06 15.06 0 0 1 1.47 1.56 6.9 6.9 0 0 1-.32-2.13v-2.41h3.46Zm12.78-1.93v1.93H96.43v-8.12h10.38v1.87h-6.22v1.18h5.04v1.8h-5.04v1.34Zm8.6-4.26v6.2h-4v-6.2h-2.85v-1.93h9.74v1.93Zm22.66-1.93-3.65 8.12h-3.56l-1.93-4.47-1.8 4.47h-3.72l-3.68-8.12h4l1.93 4.7 1.88-4.7h3.33l2.06 4.7 1.93-4.7Zm6.98 8.25a8.96 8.96 0 0 1-4.76-1.14 3.44 3.44 0 0 1-1.84-3.05 3.53 3.53 0 0 1 1.74-3.01 8.59 8.59 0 0 1 4.86-1.18 8.94 8.94 0 0 1 4.7 1.11 3.4 3.4 0 0 1 1.8 2.98 3.53 3.53 0 0 1-1.84 3.11 8.13 8.13 0 0 1-4.66 1.18Zm0-1.84a2 2 0 0 0 1.55-.54 3.23 3.23 0 0 0 .48-2.03c0-1.43-.64-2.13-1.94-2.13-1.4 0-2.1.8-2.1 2.41q0 2.29 2 2.29Zm20.62 1.71h-4.7l-2.03-3.1h-1.34v3.1h-4.21v-8.12h7.2a8.44 8.44 0 0 1 3.7.66 1.98 1.98 0 0 1 1.34 1.75 1.78 1.78 0 0 1-.48 1.24 4.47 4.47 0 0 1-1.96.95Zm-8.03-4.85h1.8a3.44 3.44 0 0 0 1.28-.2q.47-.18.47-.56c0-.51-.54-.8-1.61-.8h-1.94Zm22.46 4.85h-4.63l-2.38-3.08-1.43 1.2v1.88h-4v-8.12h4v3.36l3.8-3.36h3.82l-3.5 2.98ZM109.4 170.36l-1.26-1.15-1.84-2.19-1.94-29.35 22.9-3.36v-.85h6.5l24.37 3.52.45 27.06-7.58 7.52-38.26.03Z" fill="#fff"/><path d="m183.2 143.3.03-9.84h-49.59l10.7 17.86.98.12.57.8v.76l.7.12.6.86v.73l.7.13s.7.73.7.76v1.65a11.8 11.8 0 0 0 2.82 1.9c.92.35 1.05 1.87 1.6 2.67.72 1.14 1.7 1.61 1.48 2.25-.47 1.74-2.25 4.66-3.93 4.82h-6.57l.03 2.67 10.34.06Z" fill="#c12026"/><path d="M127.27 133.4h-25.25l-.2 31.94 5.3 6.22h5.68l-1.65-2.8h-3.2c0-7.92 2.7-12.33 5.9-13.2.45-.1.26-2.28-.31-2.91 0 0-1.53.03-1.88-.04-.4-.12-.12-.53-.12-.53l1.48-3.24-.18-.89h-5.56c-.1 0 4.57-3.2 4.57-3.2.26-8.43 8.85-9.07 14.09-5.58 3.07 2.06 3.33 6.12 3.07 8.95-.03.16-.82.03-.82.03s-.54 3.08.86 3.08h6.09a9.14 9.14 0 0 1 4.85 1.58l.6-2.1Zm36.36 39.9h-.77v2.45h-.7v-2.45h-.76v-.6h2.26v.6Zm2.22 2.45h-.51l-.73-2.48v2.48h-.6v-3.05h1.1l.55 1.84.57-1.84h1.1v3.05h-.72v-2.48Z" fill="#171648"/></svg>